# xmcd
#
# Track frame offsets: 
#        150
#        12686
#        26326
#        41384
#        50515
#        61641
#        74111
#        89024
#        100541
#        115270
#        128562
#        138563
#        147645
#        158253
#        168559
#        177880
#        185952
#        195957
#        209258
#        218834
#        231546
#        246743
#        257166
#        269466
#
# Disc length: 3792 seconds
#
# Revision: 0
# Processed by: cddbd v1.5.2PL0 Copyright (c) Steve Scherf et al.
# Submitted via: ExactAudioCopy v0.95b3
#
DISCID=6d0ece18
DTITLE=The Delfonics - La La Means I Love You and Sound Of Sexy Soul
DYEAR=1968
DGENRE=Soul
TTITLE0=I'm Sorry
TTITLE1=Break Your Promise
TTITLE2=The Shadow Of Your Smile
TTITLE3=Hurt So Bad
TTITLE4=Losing You
TTITLE5=Alfie
TTITLE6=La La Means I Love You
TTITLE7=You're Gone
TTITLE8=The Look Of Love
TTITLE9=Can You Remember
TTITLE10=A Lover's Concerto
TTITLE11=Ready Or Not Here I Come (Can't Hide From Love)
TTITLE12=Let It Be Me
TTITLE13=Hot Dog (I Love You So)
TTITLE14=Loving Him
TTITLE15=Ain't That Peculiar
TTITLE16=With These Hands
TTITLE17=Face It Girl, It's Over
TTITLE18=Goin' Out Of My Head
TTITLE19=My New Love
TTITLE20=Somebody Loves You
TTITLE21=Scarborough Fair
TTITLE22=Everytime I See My Baby
TTITLE23=You Got Yours And I'll Get Mine
EXTD=
EXTT0=
EXTT1=
EXTT2=
EXTT3=
EXTT4=
EXTT5=
EXTT6=
EXTT7=
EXTT8=
EXTT9=
EXTT10=
EXTT11=
EXTT12=
EXTT13=
EXTT14=
EXTT15=
EXTT16=
EXTT17=
EXTT18=
EXTT19=
EXTT20=
EXTT21=
EXTT22=
EXTT23=
PLAYORDER=
